<svg width="12" height="12" viewBox="0 0 12 12" fill="none" xmlns="http://www.w3.org/2000/svg">
<path d="M5.41675 5.88152V7.74819C5.41675 7.91347 5.47265 8.05201 5.58446 8.16381C5.69626 8.27562 5.8348 8.33152 6.00008 8.33152C6.16536 8.33152 6.3039 8.27562 6.41571 8.16381C6.52751 8.05201 6.58341 7.91347 6.58341 7.74819V5.88152L7.10841 6.40652C7.21536 6.51347 7.35147 6.56694 7.51675 6.56694C7.68203 6.56694 7.81814 6.51347 7.92508 6.40652C8.03203 6.29958 8.0855 6.16347 8.0855 5.99819C8.0855 5.83291 8.03203 5.6968 7.92508 5.58986L6.40841 4.07319C6.29175 3.95652 6.15564 3.89819 6.00008 3.89819C5.84453 3.89819 5.70841 3.95652 5.59175 4.07319L4.07508 5.58986C3.96814 5.6968 3.91466 5.83291 3.91466 5.99819C3.91466 6.16347 3.96814 6.29958 4.07508 6.40652C4.18203 6.51347 4.31814 6.56694 4.48341 6.56694C4.64869 6.56694 4.7848 6.51347 4.89175 6.40652L5.41675 5.88152ZM6.00008 11.8315C5.19314 11.8315 4.4348 11.6784 3.72508 11.3721C3.01536 11.0659 2.398 10.6503 1.873 10.1253C1.348 9.60027 0.932373 8.98291 0.626123 8.27319C0.319873 7.56347 0.166748 6.80513 0.166748 5.99819C0.166748 5.19124 0.319873 4.43291 0.626123 3.72319C0.932373 3.01347 1.348 2.39611 1.873 1.87111C2.398 1.34611 3.01536 0.930481 3.72508 0.624231C4.4348 0.317981 5.19314 0.164856 6.00008 0.164856C6.80703 0.164856 7.56536 0.317981 8.27508 0.624231C8.9848 0.930481 9.60217 1.34611 10.1272 1.87111C10.6522 2.39611 11.0678 3.01347 11.374 3.72319C11.6803 4.43291 11.8334 5.19124 11.8334 5.99819C11.8334 6.80513 11.6803 7.56347 11.374 8.27319C11.0678 8.98291 10.6522 9.60027 10.1272 10.1253C9.60217 10.6503 8.9848 11.0659 8.27508 11.3721C7.56536 11.6784 6.80703 11.8315 6.00008 11.8315Z" fill="#74A766"/>
</svg>
